<svg version="1.0" xmlns="http://www.w3.org/2000/svg" width="96" height="96" viewBox="0 0 96 96" preserveAspectRatio="xMidYMid meet"><g transform="translate(0,96) scale(0.0125,-0.0125)" fill="#000000" stroke="none"><path d="M1905 6230 c-28 -4 -69 -17 -91 -28 -23 -12 -65 -30 -93 -41 -84 -32 -233 -164 -277 -246 -15 -27 -38 -64 -50 -80 -14 -18 -32 -71 -46 -135 l-23 -105 0 -1750 0 -1750 23 -109 c15 -73 30 -120 46 -140 13 -17 32 -49 44 -71 22 -44 122 -150 190 -204 24 -18 67 -42 95 -53 29 -10 68 -27 87 -38 20 -10 65 -24 100 -29 89 -15 3770 -15 3858 -1 35 6 89 24 119 40 31 17 64 30 73 30 28 0 171 113 223 177 85 103 125 182 150 295 l22 103 0 1750 c0 1749 0 1750 -21 1847 -12 54 -31 112 -43 130 -11 18 -31 53 -45 78 -25 46 -134 162 -199 213 -20 15 -62 39 -94 51 -32 13 -80 34 -108 47 l-50 24 -1920 1 c-1056 1 -1943 -2 -1970 -6z m3827 -1338 c71 -29 102 -64 128 -149 20 -64 20 -88 20 -1323 0 -1247 0 -1258 -21 -1325 -11 -38 -30 -76 -42 -86 -12 -10 -40 -33 -61 -51 l-39 -33 -1876 0 -1876 0 -57 44 c-46 34 -62 55 -80 100 l-23 56 -3 1275 c-2 1256 -2 1276 18 1342 32 104 78 144 195 168 22 4 855 7 1850 6 l1810 -1 57 -23z"/><path d="M3693 4309 c-41 -5 -93 -19 -120 -32 -27 -14 -64 -30 -84 -36 -52 -17 -167 -112 -212 -173 -20 -29 -44 -63 -53 -75 -18 -26 -63 -220 -64 -276 0 -39 34 -207 49 -244 15 -34 98 -139 133 -167 102 -83 128 -96 226 -116 118 -24 148 -24 271 -4 118 20 134 28 217 109 36 36 72 65 79 65 30 0 37 -38 26 -139 -9 -80 -18 -109 -52 -176 -52 -102 -98 -149 -179 -187 -132 -61 -240 -33 -392 103 -93 83 -123 96 -201 86 -32 -4 -51 -15 -79 -46 -50 -54 -53 -111 -8 -176 17 -24 30 -48 30 -53 0 -13 138 -132 153 -132 6 0 44 -16 84 -36 91 -44 208 -58 376 -44 106 8 117 12 212 59 139 70 261 194 298 302 9 24 27 64 40 89 30 52 54 206 63 395 5 93 1 153 -15 268 -19 139 -24 155 -71 250 -28 56 -70 126 -93 155 -53 66 -169 159 -211 168 -17 3 -49 17 -72 30 -66 39 -198 51 -351 33z m232 -303 c102 -31 198 -167 198 -281 -1 -31 -11 -75 -27 -117 -23 -56 -36 -73 -83 -108 -31 -23 -68 -46 -82 -52 -33 -13 -208 -14 -239 -2 -39 16 -140 107 -157 142 -22 44 -30 156 -16 221 16 77 102 173 174 194 97 30 141 30 232 3z"/></g></svg>
