<svg version="1.0" xmlns="http://www.w3.org/2000/svg" width="96" height="96" viewBox="0 0 96 96" preserveAspectRatio="xMidYMid meet"><g transform="translate(0,96) scale(0.0125,-0.0125)" fill="#000000" stroke="none"><path d="M1905 6230 c-28 -4 -69 -17 -91 -28 -23 -12 -65 -30 -93 -41 -84 -32 -233 -164 -277 -246 -15 -27 -38 -64 -50 -80 -14 -18 -32 -71 -46 -135 l-23 -105 0 -1750 0 -1750 23 -109 c15 -73 30 -120 46 -140 13 -17 32 -49 44 -71 22 -44 122 -150 190 -204 24 -18 67 -42 95 -53 29 -10 68 -27 87 -38 20 -10 65 -24 100 -29 89 -15 3770 -15 3858 -1 35 6 89 24 119 40 31 17 64 30 73 30 28 0 171 113 223 177 85 103 125 182 150 295 l22 103 0 1750 c0 1749 0 1750 -21 1847 -12 54 -31 112 -43 130 -11 18 -31 53 -45 78 -25 46 -134 162 -199 213 -20 15 -62 39 -94 51 -32 13 -80 34 -108 47 l-50 24 -1920 1 c-1056 1 -1943 -2 -1970 -6z m3827 -1338 c71 -29 102 -64 128 -149 20 -64 20 -88 20 -1323 0 -1247 0 -1258 -21 -1325 -11 -38 -30 -76 -42 -86 -12 -10 -40 -33 -61 -51 l-39 -33 -1876 0 -1876 0 -57 44 c-46 34 -62 55 -80 100 l-23 56 -3 1275 c-2 1256 -2 1276 18 1342 32 104 78 144 195 168 22 4 855 7 1850 6 l1810 -1 57 -23z"/><path d="M2930 4310 c-36 -4 -99 -21 -142 -39 -42 -17 -81 -31 -87 -31 -8 0 -47 -30 -117 -91 -101 -89 -144 -215 -107 -314 23 -61 47 -75 132 -75 64 0 65 0 108 48 23 26 62 76 85 112 42 63 45 66 123 93 62 21 93 27 135 23 64 -5 164 -40 191 -67 29 -29 52 -124 45 -182 -9 -66 -25 -94 -80 -140 -50 -41 -109 -57 -218 -57 -72 0 -93 -8 -145 -57 -35 -32 -43 -47 -43 -74 0 -76 65 -116 208 -130 85 -8 183 -33 232 -59 9 -5 36 -37 59 -72 41 -60 43 -66 39 -123 -4 -51 -11 -69 -48 -122 -40 -57 -48 -63 -119 -89 -93 -35 -159 -36 -261 -5 -62 19 -82 31 -121 71 -26 27 -61 69 -78 94 -40 58 -79 85 -133 91 -54 7 -79 -6 -131 -67 -55 -65 -54 -98 6 -206 60 -108 117 -160 243 -222 96 -47 107 -50 219 -60 80 -7 157 -7 243 0 112 9 133 14 196 45 39 19 76 35 83 35 6 0 35 20 64 45 29 25 56 45 60 45 7 0 58 74 91 132 50 89 43 338 -11 401 -15 18 -35 43 -44 56 -23 34 -143 109 -187 116 -41 7 -76 37 -65 55 3 6 34 23 68 39 34 16 85 50 113 77 43 41 55 61 78 129 33 102 33 166 0 266 -24 73 -32 84 -105 153 -62 58 -92 79 -141 96 -35 13 -85 31 -113 40 -59 21 -230 32 -325 20z"/><path d="M4495 4310 c-46 -5 -92 -18 -135 -39 -36 -17 -70 -31 -76 -31 -19 0 -129 -92 -170 -143 -85 -102 -104 -131 -114 -170 -6 -23 -22 -65 -36 -94 -38 -79 -47 -157 -48 -403 0 -237 11 -330 44 -388 11 -18 27 -57 35 -86 9 -30 26 -67 38 -82 12 -16 36 -49 52 -75 37 -57 146 -154 183 -164 15 -3 48 -20 74 -36 40 -26 60 -31 154 -39 127 -10 283 3 328 26 17 10 56 30 86 45 60 29 180 141 207 192 9 18 29 48 44 67 15 19 33 57 39 85 6 27 19 68 29 90 40 90 46 143 46 380 l-1 230 -37 105 c-20 58 -37 113 -37 121 0 34 -90 159 -172 239 -87 86 -111 100 -258 155 -46 17 -187 25 -275 15z m222 -315 c32 -13 54 -33 88 -81 65 -93 65 -95 91 -243 31 -176 31 -295 -1 -481 -21 -125 -29 -151 -58 -195 -19 -27 -41 -62 -49 -76 -19 -29 -150 -89 -197 -89 -51 0 -175 63 -199 101 -12 19 -30 45 -41 59 -11 14 -34 79 -52 145 -27 102 -32 143 -36 271 -5 147 -4 154 31 294 38 151 40 155 105 237 32 40 52 56 88 68 60 19 172 14 230 -10z"/></g></svg>
