<svg xmlns="http://www.w3.org/2000/svg" viewBox="0 0 100 100" width="100" height="100"><path fill="#000000" d="M26.5 81.17C24.54 81.04 23.76 80.89 22.92 80.44C22.46 80.2 22.02 80 21.93 80C21.56 80 19.26 77.86 18.91 77.19C18.8 76.98 18.58 76.66 18.42 76.46C18.26 76.27 18.07 75.88 18 75.59C17.92 75.3 17.71 74.7 17.52 74.25L17.19 73.44L17.19 50L17.19 26.56L17.48 25.88C17.65 25.5 17.85 24.92 17.94 24.6C18.34 23.12 20.76 20.42 22.12 19.94C22.41 19.84 22.79 19.65 22.98 19.52C23.49 19.15 24.18 19.01 26.14 18.88C28.54 18.71 71.46 18.71 73.86 18.88C75.82 19.01 76.51 19.15 77.02 19.52C77.21 19.65 77.59 19.84 77.88 19.94C78.68 20.22 80.67 22.01 81.09 22.81C81.2 23.02 81.42 23.34 81.58 23.54C81.74 23.73 81.93 24.12 82 24.41C82.07 24.7 82.28 25.33 82.47 25.81L82.81 26.68L82.81 50L82.81 73.32L82.47 74.19C82.28 74.67 82.07 75.3 82 75.59C81.93 75.88 81.74 76.27 81.58 76.46C81.42 76.66 81.19 76.98 81.08 77.19C80.64 78.02 78.68 79.78 77.88 80.06C77.6 80.16 77.13 80.38 76.83 80.56C76.53 80.74 75.9 80.94 75.42 81.02C74.81 81.12 67.6 81.17 50.88 81.18C37.85 81.2 26.88 81.19 26.5 81.17ZM74.38 74.84C75.3 74.39 75.87 73.83 76.21 73.01L76.56 72.19L76.6 55.66L76.63 39.13L76.32 38.22C76 37.3 75.59 36.8 74.69 36.23C74.32 36.01 73.54 36 50 36C26.46 36 25.68 36.01 25.31 36.23C24.41 36.79 24 37.3 23.69 38.22L23.38 39.12L23.38 55.5L23.38 71.88L23.75 72.85C24.07 73.69 24.21 73.89 24.72 74.26C25.04 74.49 25.45 74.76 25.62 74.84C26.08 75.06 73.92 75.06 74.38 74.84ZM55.56 66.76C55.22 66.7 54.73 66.56 54.49 66.46C54.24 66.35 53.64 66.17 53.15 66.06C52.66 65.95 52.2 65.78 52.12 65.68C52.04 65.58 51.65 65.31 51.26 65.07C50.48 64.59 49.3 63.22 49.05 62.51C48.97 62.26 48.83 61.64 48.74 61.12C48.6 60.25 48.61 60.07 48.86 58.99C49.1 57.94 49.2 57.72 49.75 57.05C50.34 56.33 51.21 55.69 52.44 55.07C52.81 54.88 52.94 54.74 52.94 54.51C52.94 54.26 52.81 54.16 52.16 53.89C50.96 53.39 50.25 52.65 49.77 51.41C49.24 50.04 49.25 49.28 49.79 47.97C50.38 46.52 51.38 45.55 53.12 44.73C54.37 44.14 54.52 44.1 55.97 43.98C57.02 43.89 57.98 43.89 59.03 43.98C60.49 44.1 60.63 44.14 61.88 44.73C62.97 45.25 63.33 45.49 64.02 46.21C64.75 46.95 64.91 47.21 65.24 48.12C65.75 49.51 65.74 50.1 65.19 51.45C64.68 52.72 64.04 53.38 62.83 53.89C62.19 54.15 62.06 54.26 62.06 54.51C62.06 54.74 62.19 54.88 62.56 55.07C63.79 55.69 64.66 56.33 65.25 57.05C65.8 57.72 65.9 57.94 66.14 58.99C66.39 60.07 66.4 60.25 66.26 61.12C66.17 61.64 66.03 62.26 65.95 62.51C65.71 63.2 64.47 64.66 63.78 65.05C63.46 65.24 63 65.53 62.76 65.7C62.53 65.86 62.23 66 62.1 66C61.97 66 61.35 66.17 60.72 66.38C59.71 66.72 59.35 66.77 57.88 66.81C56.95 66.84 55.91 66.81 55.56 66.76ZM40.81 66.42C40.26 66.13 39.88 65.75 39.58 65.19C39.32 64.69 39.31 64.6 39.28 57.19C39.27 53.06 39.26 49.59 39.25 49.46C39.25 48.95 38.27 48.99 37.87 49.52C37.76 49.65 37.47 49.89 37.23 50.04C36.98 50.19 36.54 50.48 36.24 50.69C35.79 51.01 35.59 51.06 34.93 51.06C34.27 51.06 34.09 51.01 33.81 50.75C33.36 50.34 33.13 49.78 33.22 49.31C33.3 48.89 34.76 47.38 35.42 47.04C35.64 46.93 36.02 46.67 36.27 46.45C36.72 46.06 37.51 45.53 38.36 45.06C38.61 44.92 39.05 44.64 39.34 44.45C39.76 44.17 40.04 44.09 40.85 44.03C42.17 43.94 42.56 44.09 43.28 44.94C43.81 45.58 43.86 45.69 43.94 46.53C44.08 48.19 43.95 64.9 43.79 65.27C43.71 65.45 43.32 65.83 42.92 66.11C42.12 66.69 41.49 66.78 40.81 66.42ZM58.92 63.14C59.72 62.95 59.99 62.82 60.4 62.42C60.98 61.86 61.62 60.62 61.62 60.04C61.63 59.32 60.97 58.11 60.27 57.54C59.69 57.08 59.51 57.01 58.56 56.87C57.71 56.74 57.29 56.74 56.44 56.87C55.5 57.01 55.3 57.08 54.73 57.54C54 58.12 53.38 59.26 53.38 60.02C53.37 60.49 53.76 61.5 54.12 61.96C54.6 62.57 55.17 62.92 56.04 63.14C57.21 63.42 57.73 63.42 58.92 63.14ZM58.85 52.99C59.34 52.89 59.59 52.73 60.18 52.13L60.91 51.39L60.97 50.47C61.02 49.7 60.99 49.46 60.77 49.04C60.46 48.43 59.86 47.91 58.93 47.44C58.34 47.14 58.14 47.1 57.34 47.14C56.53 47.18 56.34 47.25 55.63 47.69C55.2 47.96 54.66 48.4 54.45 48.67C54.08 49.12 54.06 49.2 54.06 50.26L54.06 51.37L54.83 52.14C55.4 52.71 55.72 52.93 56.08 53C56.81 53.14 58.17 53.14 58.85 52.99Z"/></svg>